<svg width="144" height="66" viewBox="0 0 144 66" fill="none" xmlns="http://www.w3.org/2000/svg">
<rect width="144" height="66" fill="#F5F5F5"/>
<path d="M-542 -321C-542 -322.104 -541.105 -323 -540 -323H320C321.105 -323 322 -322.105 322 -321V5176C322 5177.1 321.105 5178 320 5178H-540C-541.105 5178 -542 5177.1 -542 5176V-321Z" fill="#E5E5E5"/>
<g clip-path="url(#clip0_11_42640)">
<g clip-path="url(#clip1_11_42640)">
<rect width="360" height="9188" transform="translate(-108 -223)" fill="#FFF6EC"/>
</g>
<g clip-path="url(#clip2_11_42640)">
<path d="M141.696 36.5112L143.016 5.6364H129.618L131.281 36.5376L141.696 36.5112ZM129.248 46.8864C129.354 48.3011 129.873 49.6537 130.739 50.7772C131.605 51.9006 132.782 52.7456 134.123 53.2078C135.464 53.67 136.911 53.7291 138.286 53.3778C139.66 53.0265 140.902 52.2802 141.857 51.2311C142.812 50.182 143.439 48.8761 143.66 47.4748C143.881 46.0735 143.686 44.6381 143.1 43.346C142.515 42.054 141.563 40.9619 140.363 40.2046C139.164 39.4474 137.768 39.0582 136.35 39.0852C135.371 39.1292 134.41 39.3661 133.523 39.7824C132.635 40.1987 131.839 40.7861 131.179 41.5109C130.519 42.2357 130.009 43.0837 129.678 44.0061C129.346 44.9286 129.201 45.9074 129.248 46.8864ZM112.96 53.658H124.84L112.709 8.3556H103.06L90.9024 53.658H102.782L103.984 47.718H111.732L112.933 53.658H112.96ZM109.818 38.1084H105.95L107.851 26.3208L109.818 38.1084ZM83.5764 53.658L95.7204 8.3556H83.8404L78.7056 34.518L73.6763 8.3556H61.7963L73.9536 53.658H83.5764ZM46.7351 53.7372H58.9451V8.4348H46.7351V53.7372ZM29.2187 66L45.3623 0H29.5223L22.7639 38.1876L16.0978 0H0.257812L16.4014 66H29.2187Z" fill="#D8232A"/>
</g>
</g>
<path d="M-540 -322H320V-324H-540V-322ZM321 -321V5176H323V-321H321ZM320 5177H-540V5179H320V5177ZM-541 5176V-321H-543V5176H-541ZM-540 5177C-540.552 5177 -541 5176.55 -541 5176H-543C-543 5177.66 -541.657 5179 -540 5179V5177ZM321 5176C321 5176.55 320.552 5177 320 5177V5179C321.657 5179 323 5177.66 323 5176H321ZM320 -322C320.552 -322 321 -321.552 321 -321H323C323 -322.657 321.657 -324 320 -324V-322ZM-540 -324C-541.657 -324 -543 -322.657 -543 -321H-541C-541 -321.552 -540.552 -322 -540 -322V-324Z" fill="black" fill-opacity="0.1"/>
<defs>
<clipPath id="clip0_11_42640">
<rect width="360" height="4666" fill="white" transform="translate(-108 -223)"/>
</clipPath>
<clipPath id="clip1_11_42640">
<rect width="360" height="9188" fill="white" transform="translate(-108 -223)"/>
</clipPath>
<clipPath id="clip2_11_42640">
<rect width="143.484" height="66" fill="white" transform="translate(0.257812)"/>
</clipPath>
</defs>
</svg>
